<svg viewBox="45.5 27.5 17 17" xmlns="http://www.w3.org/2000/svg" fill="currentColor" stroke="currentColor" stroke-width="0.5" stroke-linecap="round" stroke-linejoin="round" width="14px" height="14px">
    <path d="M57.5,41a.5.5,0,0,0-.5.5V43H47V31h2v.5a.5.5,0,0,0,.5.5h5a.5.5,0,0,0,.5-.5V31h2v.5a.5.5,0,0,0,1,0v-1a.5.5,0,0,0-.5-.5H55v-.5A1.5,1.5,0,0,0,53.5,28h-3A1.5,1.5,0,0,0,49,29.5V30H46.5a.5.5,0,0,0-.5.5v13a.5.5,0,0,0,.5.5h11a.5.5,0,0,0,.5-.5v-2A.5.5,0,0,0,57.5,41ZM50,29.5a.5.5,0,0,1,.5-.5h3a.5.5,0,0,1,.5.5V31H50Zm11.854,4.646-2-2a.5.5,0,0,0-.708,0l-6,6A.5.5,0,0,0,53,38.5v2a.5.5,0,0,0,.5.5h2a.5.5,0,0,0,.354-.146l6-6A.5.5,0,0,0,61.854,34.146ZM54,40V38.707l5.5-5.5L60.793,34.5l-5.5,5.5Zm-2,.5a.5.5,0,0,1-.5.5h-2a.5.5,0,0,1,0-1h2A.5.5,0,0,1,52,40.5Zm0-3a.5.5,0,0,1-.5.5h-2a.5.5,0,0,1,0-1h2A.5.5,0,0,1,52,37.5ZM54.5,35h-5a.5.5,0,0,1,0-1h5a.5.5,0,0,1,0,1Z"></path>
</svg>